<svg width="24" height="24" viewBox="0 0 24 24" fill="none" xmlns="http://www.w3.org/2000/svg">
<path d="M8 6H7C5.11438 6 4.17157 6 3.58579 6.58579C3 7.17157 3 8.11438 3 10V17C3 18.8856 3 19.8284 3.58579 20.4142C4.17157 21 5.11438 21 7 21H17C18.8856 21 19.8284 21 20.4142 20.4142C21 19.8284 21 18.8856 21 17V10C21 8.11438 21 7.17157 20.4142 6.58579C19.8284 6 18.8856 6 17 6H16" stroke="black" stroke-width="1.6" stroke-linecap="round" class="my-path"/>
<path d="M10.5 12.5C10.5 13.3284 9.82843 14 9 14C8.17157 14 7.5 13.3284 7.5 12.5C7.5 11.6716 8.17157 11 9 11C9.82843 11 10.5 11.6716 10.5 12.5Z" stroke="black" stroke-width="1.6" class="my-path"/>
<path d="M12 18V17.9286C12 17.5302 12 17.331 11.9624 17.1662C11.8342 16.6045 11.3955 16.1658 10.8338 16.0376C10.669 16 10.4698 16 10.0714 16H8C7.53501 16 7.30252 16 7.11177 16.0511C6.59413 16.1898 6.18981 16.5941 6.05111 17.1118C6 17.3025 6 17.535 6 18" stroke="black" stroke-width="1.6" stroke-linecap="round" class="my-path"/>
<path d="M15 13H18" stroke="black" stroke-width="1.6" stroke-linecap="round" class="my-path"/>
<path d="M15 16H18" stroke="black" stroke-width="1.6" stroke-linecap="round" class="my-path"/>
<path d="M10.25 6.24985L10.25 5.47472C10.25 5.16873 10.25 5.01573 10.2931 4.87378C10.3121 4.8111 10.3372 4.75043 10.3681 4.69267C10.438 4.56185 10.5462 4.45366 10.7626 4.23729C11.2591 3.74073 11.5074 3.49246 11.8049 3.43328C11.9337 3.40766 12.0663 3.40766 12.1951 3.43328C12.4926 3.49246 12.7409 3.74073 13.2374 4.23729C13.4538 4.45366 13.562 4.56185 13.6319 4.69267C13.6628 4.75043 13.6879 4.8111 13.7069 4.87378C13.75 5.01573 13.75 5.16873 13.75 5.47472V6.24985C13.75 6.95208 13.75 7.3032 13.5815 7.55542C13.5085 7.66461 13.4148 7.75836 13.3056 7.83132C13.0533 7.99985 12.7022 7.99985 12 7.99985C11.2978 7.99985 10.9467 7.99985 10.6944 7.83132C10.5852 7.75836 10.4915 7.66461 10.4185 7.55542C10.25 7.3032 10.25 6.95208 10.25 6.24985Z" stroke="black" stroke-width="1.6" stroke-linecap="round" stroke-linejoin="round" class="my-path"/>
</svg>